<svg width="3026" height="2530" viewBox="0 0 3026 2530" fill="none" xmlns="http://www.w3.org/2000/svg">
<path d="M1749.91 2518.41V1988.14H1924.26L2072.09 2387.45H2076.11L2220.73 1988.14H2387.04V2518.41H2276.97L2284.2 2105.44H2275.36L2114.67 2518.41H2018.26L1859.98 2105.44H1851.14L1858.38 2518.41H1749.91Z" fill="#222222"/>
<path d="M1204.68 2518.41V1988.14H1320.37V2225.15C1347.69 2213.9 1373.13 2199.71 1396.7 2182.57C1420.8 2164.89 1442.23 2145.34 1460.97 2123.92C1479.72 2102.49 1495.79 2080.26 1509.18 2057.23C1522.57 2034.2 1532.21 2011.17 1538.1 1988.14H1670.67C1663.17 2014.38 1651.66 2040.63 1636.12 2066.87C1621.13 2092.58 1603.18 2116.96 1582.29 2139.99C1561.4 2163.02 1539.18 2183.64 1515.61 2201.85C1492.58 2219.53 1469.28 2233.45 1445.71 2243.63V2255.68C1470.35 2255.68 1492.31 2258.63 1511.59 2264.52C1531.41 2269.88 1548.82 2278.72 1563.81 2291.03C1579.35 2302.82 1593.01 2317.55 1604.79 2335.22C1616.57 2352.9 1627.02 2374.06 1636.12 2398.7L1678.71 2518.41H1547.75L1519.63 2422C1512.13 2395.75 1502.22 2374.86 1489.9 2359.33C1477.58 2343.26 1461.78 2331.74 1442.5 2324.78C1423.21 2317.28 1398.04 2313.53 1366.97 2313.53H1320.37V2518.41H1204.68Z" fill="#222222"/>
<path d="M880.292 2529.66C847.619 2529.66 818.427 2526.18 792.717 2519.22C767.542 2512.79 745.581 2503.41 726.834 2491.09C708.087 2478.24 692.286 2462.97 679.431 2445.3C667.112 2427.09 657.738 2406.73 651.311 2384.24C645.419 2361.74 642.473 2337.1 642.473 2310.32V1988.14H758.972V2306.3C758.972 2333.62 763.257 2356.38 771.827 2374.6C780.933 2392.27 794.323 2405.39 811.999 2413.96C829.675 2422.53 852.171 2426.82 879.488 2426.82C907.341 2426.82 930.105 2422.53 947.781 2413.96C965.993 2405.39 979.383 2392.27 987.953 2374.6C997.059 2356.38 1001.61 2333.62 1001.61 2306.3V1988.14H1116.5V2310.32C1116.5 2379.95 1096.69 2434.05 1057.05 2472.62C1017.95 2510.65 959.029 2529.66 880.292 2529.66Z" fill="#222222"/>
<path d="M2895.67 1746.89V1325.08H3011.36V1746.89H2895.67ZM2954.32 1261.61C2931.82 1261.61 2914.41 1257.06 2902.09 1247.95C2890.31 1238.31 2884.42 1224.39 2884.42 1206.17C2884.42 1187.43 2890.31 1173.23 2902.09 1163.59C2914.41 1153.95 2931.82 1149.13 2954.32 1149.13C2977.35 1149.13 2994.76 1153.95 3006.54 1163.59C3018.86 1173.23 3025.02 1187.43 3025.02 1206.17C3025.02 1223.85 3018.86 1237.51 3006.54 1247.15C2994.76 1256.79 2977.35 1261.61 2954.32 1261.61Z" fill="#DE3C4B"/>
<path d="M2586.66 1893.92C2540.59 1893.92 2502.57 1890.17 2472.57 1882.67C2443.11 1875.71 2421.42 1865.27 2407.49 1851.34C2393.56 1837.41 2386.6 1820 2386.6 1799.12C2386.6 1774.48 2396.24 1754.39 2415.53 1738.86C2435.34 1723.32 2464.27 1713.95 2502.3 1710.74V1694.67C2473.37 1694.67 2451.14 1691.72 2435.61 1685.83C2420.08 1679.4 2412.31 1668.42 2412.31 1652.89C2412.31 1637.89 2419.81 1624.5 2434.81 1612.72C2450.34 1600.93 2475.78 1591.56 2511.14 1584.6V1568.53C2477.93 1566.38 2451.95 1555.67 2433.2 1536.39C2414.45 1517.11 2405.08 1492.2 2405.08 1461.67C2405.08 1434.89 2412.58 1411.05 2427.58 1390.16C2442.57 1368.74 2464.8 1351.87 2494.26 1339.55C2524.26 1326.69 2560.95 1320.26 2604.33 1320.26H2818.05V1408.64L2685.48 1390.16V1408.64C2719.76 1413.46 2744.4 1422.03 2759.4 1434.35C2774.93 1446.67 2782.7 1463.81 2782.7 1485.77C2782.7 1507.73 2775.47 1527.02 2761.01 1543.62C2746.54 1560.22 2725.92 1573.35 2699.14 1582.99C2672.9 1592.09 2641.29 1596.65 2604.33 1596.65C2597.37 1596.65 2589.87 1596.38 2581.84 1595.84C2573.8 1595.31 2560.41 1593.97 2541.67 1591.83C2531.49 1599.33 2523.45 1606.02 2517.56 1611.91C2512.21 1617.27 2509.53 1622.36 2509.53 1627.18C2509.53 1630.93 2511.4 1634.14 2515.15 1636.82C2519.44 1639.5 2524.79 1641.37 2531.22 1642.44C2538.18 1643.52 2545.15 1644.05 2552.11 1644.05H2672.63C2683.34 1644.05 2697.27 1644.85 2714.41 1646.46C2731.55 1647.53 2748.69 1651.55 2765.83 1658.51C2782.97 1665.48 2797.43 1676.72 2809.21 1692.26C2821 1707.26 2826.89 1728.95 2826.89 1757.34C2826.89 1788.4 2818.05 1814.11 2800.37 1834.47C2783.23 1854.82 2756.72 1869.82 2720.83 1879.46C2685.48 1889.1 2640.76 1893.92 2586.66 1893.92ZM2599.51 1801.53C2632.19 1801.53 2657.63 1799.65 2675.84 1795.9C2694.05 1792.69 2706.91 1787.06 2714.41 1779.03C2722.44 1771.53 2726.46 1761.89 2726.46 1750.11C2726.46 1739.39 2724.05 1731.09 2719.23 1725.2C2714.94 1719.31 2709.05 1715.29 2701.55 1713.15C2694.59 1710.47 2687.36 1708.86 2679.86 1708.33C2672.9 1707.26 2666.74 1706.72 2661.38 1706.72H2560.15C2537.65 1708.86 2521.31 1715.02 2511.14 1725.2C2501.49 1734.84 2496.67 1746.09 2496.67 1758.94C2496.67 1770.73 2500.42 1779.56 2507.92 1785.46C2515.42 1791.35 2526.67 1795.37 2541.67 1797.51C2557.2 1800.19 2576.48 1801.53 2599.51 1801.53ZM2597.91 1536.39C2623.62 1536.39 2642.9 1530.23 2655.76 1517.91C2668.61 1505.06 2675.04 1488.45 2675.04 1468.1C2675.04 1446.67 2668.34 1429 2654.95 1415.07C2642.1 1401.14 2623.08 1394.18 2597.91 1394.18C2573.27 1394.18 2553.99 1401.14 2540.06 1415.07C2526.13 1428.46 2519.17 1445.87 2519.17 1467.29C2519.17 1480.68 2522.12 1492.74 2528.01 1503.45C2534.44 1513.63 2543.54 1521.66 2555.32 1527.55C2567.11 1533.44 2581.3 1536.39 2597.91 1536.39Z" fill="#DE3C4B"/>
<path d="M2155.13 1758.14C2120.31 1758.14 2089.25 1753.32 2061.93 1743.68C2035.15 1734.04 2012.38 1720.11 1993.64 1701.9C1974.89 1683.69 1960.43 1661.19 1950.25 1634.41C1940.61 1607.63 1935.79 1577.36 1935.79 1543.62C1935.79 1510.41 1940.34 1479.88 1949.45 1452.03C1959.09 1423.64 1973.02 1399.27 1991.23 1378.91C2009.44 1358.02 2031.67 1341.95 2057.91 1330.71C2084.16 1319.46 2113.89 1313.83 2147.09 1313.83C2179.23 1313.83 2207.89 1319.19 2233.06 1329.9C2258.24 1340.08 2279.13 1355.61 2295.73 1376.5C2312.87 1397.39 2325.19 1423.1 2332.69 1453.63C2340.72 1483.63 2343.67 1518.18 2341.53 1557.28L2010.51 1560.49V1497.02L2274.84 1494.61L2233.87 1526.75C2237.62 1498.36 2235.74 1475.06 2228.24 1456.85C2220.74 1438.64 2209.76 1425.25 2195.3 1416.68C2181.37 1408.11 2165.84 1403.82 2148.7 1403.82C2128.35 1403.82 2110.4 1409.18 2094.87 1419.89C2079.34 1430.6 2067.29 1446.4 2058.72 1467.29C2050.15 1487.65 2045.86 1512.28 2045.86 1541.21C2045.86 1586.74 2055.77 1620.21 2075.59 1641.64C2095.94 1663.06 2122.46 1673.78 2155.13 1673.78C2170.13 1673.78 2182.71 1671.9 2192.89 1668.15C2203.6 1663.87 2212.17 1658.51 2218.6 1652.08C2225.56 1645.66 2230.92 1638.43 2234.67 1630.39C2238.95 1622.36 2242.44 1614.32 2245.11 1606.29L2345.55 1627.98C2340.72 1647.8 2333.49 1665.74 2323.85 1681.81C2314.75 1697.34 2302.43 1711 2286.89 1722.79C2271.36 1734.04 2252.61 1742.61 2230.65 1748.5C2209.23 1754.92 2184.05 1758.14 2155.13 1758.14Z" fill="#DE3C4B"/>
<path d="M1805.11 1756.53C1757.98 1756.53 1723.16 1744.21 1700.66 1719.58C1678.7 1694.4 1667.72 1654.5 1667.72 1599.86V1415.87H1606.66L1608.27 1325.09H1650.85C1667.45 1325.09 1679.77 1322.67 1687.81 1317.85C1695.84 1313.03 1700.66 1304.2 1702.27 1291.34L1712.71 1231.08H1778.6V1325.09H1885.45V1419.09H1778.6V1595.04C1778.6 1614.32 1783.15 1628.25 1792.26 1636.82C1801.36 1645.39 1815.29 1649.68 1834.03 1649.68C1844.21 1649.68 1853.85 1648.6 1862.96 1646.46C1872.6 1644.32 1880.9 1640.84 1887.87 1636.02V1743.68C1871.26 1749.04 1856 1752.52 1842.07 1754.12C1828.14 1755.73 1815.82 1756.53 1805.11 1756.53Z" fill="#DE3C4B"/>
<path d="M1283.74 1758.14C1260.17 1758.14 1239.28 1753.59 1221.07 1744.48C1202.86 1734.84 1188.67 1721.18 1178.49 1703.5C1168.31 1685.83 1163.22 1663.87 1163.22 1637.62C1163.22 1614.59 1167.51 1595.31 1176.08 1579.77C1185.18 1564.24 1198.31 1551.65 1215.45 1542.01C1232.59 1532.37 1253.74 1524.34 1278.92 1517.91C1304.09 1511.48 1332.75 1505.86 1364.89 1501.04C1382.03 1498.36 1395.95 1495.95 1406.67 1493.81C1417.91 1491.13 1426.22 1487.11 1431.57 1481.75C1436.93 1475.86 1439.61 1467.56 1439.61 1456.85C1439.61 1441.85 1434.25 1428.99 1423.54 1418.28C1412.83 1407.57 1395.95 1402.21 1372.92 1402.21C1357.39 1402.21 1342.93 1404.89 1329.54 1410.25C1316.68 1415.6 1305.43 1423.64 1295.79 1434.35C1286.69 1445.06 1279.99 1458.72 1275.7 1475.33L1173.67 1443.99C1180.1 1422.03 1189.2 1403.02 1200.98 1386.95C1213.3 1370.88 1228.03 1357.49 1245.17 1346.78C1262.31 1335.53 1281.86 1327.23 1303.83 1321.87C1325.79 1316.51 1349.62 1313.83 1375.33 1313.83C1416.58 1313.83 1450.05 1320.53 1475.76 1333.92C1502.01 1346.78 1521.56 1367.13 1534.41 1394.98C1547.27 1422.3 1553.7 1457.65 1553.7 1501.04V1573.35C1553.7 1592.09 1553.96 1611.11 1554.5 1630.39C1555.57 1649.67 1556.64 1669.22 1557.71 1689.04C1559.32 1708.33 1560.93 1727.61 1562.53 1746.89H1460.5C1458.35 1733.5 1456.21 1718.23 1454.07 1701.09C1452.46 1683.42 1451.12 1665.74 1450.05 1648.07H1435.59C1428.09 1668.42 1417.38 1686.9 1403.45 1703.5C1389.53 1720.11 1372.39 1733.5 1352.03 1743.68C1332.21 1753.32 1309.45 1758.14 1283.74 1758.14ZM1332.75 1674.58C1342.93 1674.58 1353.1 1672.71 1363.28 1668.96C1373.99 1665.21 1384.17 1660.12 1393.81 1653.69C1403.99 1646.73 1413.09 1638.16 1421.13 1627.98C1429.7 1617.8 1436.66 1606.29 1442.02 1593.43L1440.41 1525.94L1458.89 1529.96C1449.25 1536.92 1438 1542.55 1425.15 1546.83C1412.29 1550.58 1398.9 1553.53 1384.97 1555.67C1371.58 1557.81 1358.19 1560.22 1344.8 1562.9C1331.41 1565.58 1319.36 1569.06 1308.65 1573.35C1298.47 1577.63 1290.17 1583.52 1283.74 1591.02C1277.85 1597.99 1274.9 1607.89 1274.9 1620.75C1274.9 1637.35 1280.26 1650.48 1290.97 1660.12C1301.68 1669.76 1315.61 1674.58 1332.75 1674.58Z" fill="#DE3C4B"/>
<path d="M849.168 1746.89V1542.82V1325.09H944.778L945.581 1468.9H960.847C965.132 1433.01 972.363 1403.82 982.54 1381.33C993.252 1358.83 1007.98 1342.23 1026.73 1331.51C1045.48 1320.8 1068.78 1315.44 1096.63 1315.44C1101.45 1315.44 1106.54 1315.71 1111.89 1316.25C1117.79 1316.25 1124.48 1317.05 1131.98 1318.66L1127.16 1441.58C1119.12 1437.83 1110.29 1435.16 1100.65 1433.55C1091 1431.94 1082.43 1431.14 1074.94 1431.14C1054.05 1431.14 1036.1 1435.96 1021.1 1445.6C1006.11 1455.24 993.788 1469.17 984.146 1487.38C975.041 1505.06 968.881 1526.75 965.667 1552.46V1746.89H849.168Z" fill="#DE3C4B"/>
<path d="M692.88 1756.53C645.745 1756.53 610.929 1744.21 588.433 1719.58C566.472 1694.4 555.491 1654.5 555.491 1599.86V1415.87H494.43L496.037 1325.09H538.619C555.224 1325.09 567.543 1322.67 575.577 1317.85C583.612 1313.03 588.433 1304.2 590.039 1291.34L600.484 1231.08H666.367V1325.09H773.225V1419.09H666.367V1595.04C666.367 1614.32 670.919 1628.25 680.025 1636.82C689.131 1645.39 703.057 1649.68 721.804 1649.68C731.981 1649.68 741.622 1648.6 750.728 1646.46C760.369 1644.32 768.672 1640.84 775.635 1636.02V1743.68C759.03 1749.04 743.765 1752.52 729.839 1754.12C715.912 1755.73 703.593 1756.53 692.88 1756.53Z" fill="#DE3C4B"/>
<path d="M228.981 1758.14C194.165 1758.14 162.831 1754.66 134.978 1747.69C107.661 1741.26 84.0937 1731.36 64.2755 1717.97C44.9928 1704.04 29.7274 1686.9 18.4792 1666.54C7.76662 1645.66 1.60689 1621.82 0 1595.04L101.234 1562.1C102.305 1586.2 108.197 1606.29 118.91 1622.36C130.158 1638.42 145.959 1650.21 166.313 1657.71C186.667 1665.21 209.431 1668.96 234.605 1668.96C258.709 1668.96 279.063 1666.01 295.667 1660.12C312.272 1654.23 324.859 1646.46 333.429 1636.82C341.999 1626.64 346.284 1615.66 346.284 1603.88C346.284 1589.95 340.928 1578.7 330.215 1570.13C319.503 1561.56 304.773 1554.33 286.026 1548.44C267.814 1542.55 246.925 1536.92 223.357 1531.57C197.111 1525.67 171.133 1518.98 145.423 1511.48C120.249 1503.98 97.2166 1494.34 76.3271 1482.56C55.9732 1470.77 39.6365 1455.51 27.3171 1436.76C15.5332 1418.01 9.64132 1394.45 9.64132 1366.06C9.64132 1333.38 17.6758 1305.26 33.7446 1281.7C50.3491 1257.59 74.4524 1238.85 106.055 1225.45C137.657 1212.06 175.686 1205.37 220.143 1205.37C265.136 1205.37 303.434 1212.06 335.036 1225.45C367.174 1238.31 392.08 1256.79 409.756 1280.89C427.432 1304.46 437.073 1332.58 438.68 1365.25L334.232 1394.18C334.232 1377.57 331.554 1363.11 326.198 1350.79C320.842 1338.47 313.343 1328.3 303.702 1320.26C294.06 1311.69 282.009 1305.26 267.547 1300.98C253.62 1296.69 237.551 1294.55 219.34 1294.55C198.45 1294.55 180.239 1297.23 164.706 1302.58C149.708 1307.94 138.192 1315.17 130.158 1324.28C122.659 1333.38 118.91 1344.1 118.91 1356.42C118.91 1370.88 124.802 1382.93 136.585 1392.57C148.905 1401.68 164.974 1409.18 184.792 1415.07C205.146 1420.96 227.374 1426.58 251.478 1431.94C274.51 1436.76 297.81 1442.92 321.377 1450.42C345.481 1457.38 367.709 1466.76 388.063 1478.54C408.953 1489.79 425.557 1505.32 437.877 1525.14C450.732 1544.42 457.159 1568.79 457.159 1598.25C457.159 1630.39 448.589 1658.51 431.449 1682.61C414.309 1706.72 388.599 1725.46 354.318 1738.85C320.574 1751.71 278.795 1758.14 228.981 1758.14Z" fill="#DE3C4B"/>
<mask id="path-12-inside-1_2546_2" fill="white">
<rect x="782.137" y="291.119" width="970.384" height="582.231" rx="43.0732"/>
</mask>
<rect x="782.137" y="291.119" width="970.384" height="582.231" rx="43.0732" fill="#222222" stroke="#222222" stroke-width="107.683" mask="url(#path-12-inside-1_2546_2)"/>
<mask id="path-13-inside-2_2546_2" fill="white">
<rect x="1267.34" y="0.00152588" width="970.384" height="582.231" rx="43.0732"/>
</mask>
<rect x="1267.34" y="0.00152588" width="970.384" height="582.231" rx="43.0732" fill="#DE3C4B" stroke="#DE3C4B" stroke-width="107.683" mask="url(#path-13-inside-2_2546_2)"/>
</svg>
